**ABCDEFGHIJKLMNOPQRSTUVWXYZabcdefghijklmnopqrstuvwxyz**************************
**PARASOLID !"#$%&'()*+,-./:;<=>?@[\]^_`{|}~0123456789**************************
**PART1;
MC=AMD64;
MC_MODEL=Intel64 Family 6 Model 94 Stepping 3, GenuineIntel;
MC_ID=unknown;
OS=Windows_NT;
OS_RELEASE=unknown;
FRU=Parasolid Version 33.1, build 247,  8- 6-2021;
APPL=SOLIDWORKS 2022-2021255;
SITE=;
USER=unknown;
FORMAT=text;
GUISE=transmit;
KEY=FILEYamato.x_t;
DATE=Thu Jun 29 10:03:48 2023;
**PART2;
SCH=SCH_3301247_33103;
USFLD_SIZE=0;
**PART3;
**END_OF_HEADER*****************************************************************
T75 : TRANSMIT FILE created by modeller version 3301247 minimum version 28010002
3 SCH_3301247_33103_13006230 0 10 21 CCCCI7 lattice222 0 CCCI4 mesh1006 0 I8 pol
yline1008 0 CCCCCCCCCCA16 mesh_offset_data206 0 Z1 33 2 3 0 0 0 0 0 0 0 0 1e3 1e
-8 0 0 0 1 0 1 4 0 81 255 2 2 33 5 1 0 0 0 0 0 0 70 11 CI9 list_type0 0 1 uI10 n
otransmit0 0 1 lCCCDCCDI12 finger_index0 0 1 dI12 finger_block1012 0 CZ3 0 4 T1
 0 0 1 20 1 6 6 11 255 4 31 0 1 7 8 1 9 0 0 0 12 35 CCCI7 lattice222 0 CCCI4 mes
h1006 0 I8 polyline1008 0 CCCCCCCDI5 owner1040 0 CCCCCCI13 boundary_mesh1006 0 I
17 boundary_polyline1008 0 CCCA16 index_map_offset0 0 1 dA9 index_map82 0 A17 no
de_id_index_map82 0 A20 schema_embedding_map82 0 A5 child12 0 A14 lowest_node_id
0 0 1 dA16 mesh_offset_data206 0 Z7 61 10 11 0 0 0 0 0 0 0 1e3 1e-8 4 12 0 1 0 3
 1 13 0 0 0 14 15 16 17 0 0 0 0 0 0 0 0 100 10 CCCCCCCCCA9 precision229 0 Z8 32
 4 0 0 1 0 0 0 1 0 0 0 1 0 0 0 1 0 ?0 11 9 29 0 1 12 18 1 19 4 0 0 12 12 54 20 2
1 0 0 0 0 0 0 0 1e3 1e-8 9 22 7 1 0 3 1 23 0 0 0 24 25 26 27 0 0 0 0 0 0 0 0 100
 18 30 9 0 0 1 0 0 0 1 0 0 0 1 0 0 0 1 0 ?0 11 19 27 0 1 22 28 1 29 9 0 0 12 22
 54 30 31 0 0 0 0 0 0 0 1e3 1e-8 19 32 12 1 0 3 1 33 0 0 0 34 35 36 37 0 0 0 0 0
 0 0 0 100 28 28 19 0 0 1 0 0 0 1 0 0 0 1 0 0 0 1 0 ?0 11 29 25 0 1 32 38 1 39 1
9 0 0 12 32 61 40 41 0 0 0 0 0 0 0 1e3 1e-8 29 42 22 1 0 3 1 43 0 0 0 44 45 46 4
7 0 0 0 0 0 0 0 0 100 38 26 29 0 0 1 0 0 0 1 0 0 0 1 0 0 0 1 0 ?0 11 39 23 0 1 4
2 48 1 49 29 0 0 12 42 54 50 51 0 0 0 0 0 0 0 1e3 1e-8 39 52 32 1 0 3 1 53 0 0 0
 54 55 56 57 0 0 0 0 0 0 0 0 100 48 24 39 0 0 1 0 0 0 1 0 0 0 1 0 0 0 1 0 ?0 11
 49 21 0 1 52 58 1 59 39 0 0 12 52 54 60 61 0 0 0 0 0 0 0 1e3 1e-8 49 62 42 1 0
 3 1 63 0 0 0 64 65 66 67 0 0 0 0 0 0 0 0 100 58 22 49 0 0 1 0 0 0 1 0 0 0 1 0 0
 0 1 0 ?0 11 59 19 0 1 62 68 1 69 49 0 0 12 62 81 70 71 0 0 0 0 0 0 0 1e3 1e-8 5
9 72 52 1 0 3 1 73 0 0 0 74 75 76 77 0 0 0 0 0 0 0 0 100 68 20 59 0 0 1 0 0 0 1
 0 0 0 1 0 0 0 1 0 ?0 11 69 17 0 1 72 78 1 79 59 0 0 12 72 74 80 81 0 0 0 0 0 0
 0 1e3 1e-8 69 82 62 1 0 3 1 83 0 0 0 84 85 86 87 0 0 0 0 0 0 0 0 100 78 18 69 0
 0 1 0 0 0 1 0 0 0 1 0 0 0 1 0 ?0 11 79 15 0 1 82 88 1 89 69 0 0 12 82 314 90 91
 0 0 0 0 0 0 0 1e3 1e-8 79 92 72 1 0 3 1 93 0 0 94 95 96 97 98 99 0 0 0 0 0 0 0
 100 88 16 79 0 0 1 0 0 0 1 0 0 0 1 0 0 0 1 0 ?0 11 89 13 0 1 92 100 1 101 79 0
 0 12 92 81 102 103 0 0 0 0 0 0 0 1e3 1e-8 89 104 82 1 0 3 1 105 0 0 0 106 107 1
08 109 0 0 0 0 0 0 0 0 100 100 14 89 0 0 1 0 0 0 1 0 0 0 1 0 0 0 1 0 ?0 11 101 1
1 0 1 104 110 1 111 89 0 0 12 104 314 112 113 0 0 0 0 0 0 0 1e3 1e-8 101 114 92
 1 0 3 1 115 0 0 116 117 118 119 120 121 0 0 0 0 0 0 0 100 110 12 101 0 0 1 0 0
 0 1 0 0 0 1 0 0 0 1 0 ?0 11 111 9 0 1 114 122 1 123 101 0 0 12 114 315 124 125
 0 0 0 0 0 0 0 1e3 1e-8 111 126 104 1 0 3 1 127 0 0 128 129 130 131 132 133 0 0
 0 0 0 0 0 100 122 10 111 0 0 1 0 0 0 1 0 0 0 1 0 0 0 1 0 ?0 11 123 7 0 1 126 13
4 1 135 111 0 0 12 126 48 136 137 0 0 0 0 0 0 0 1e3 1e-8 123 138 114 1 0 1 1 139
 0 0 0 140 0 141 0 0 0 0 0 0 0 0 0 100 134 8 123 0 0 1 0 0 0 1 0 0 0 1 0 0 0 1 0
 ?0 11 135 5 0 1 138 142 1 143 123 0 0 12 138 48 144 145 0 0 0 0 0 0 0 1e3 1e-8
 135 146 126 1 0 1 1 147 0 0 0 148 0 149 0 0 0 0 0 0 0 0 0 100 142 6 135 0 0 1 0
 0 0 1 0 0 0 1 0 0 0 1 0 ?0 11 143 3 0 1 146 150 1 151 135 0 0 12 146 209 152 15
3 0 0 0 0 0 0 0 1e3 1e-8 143 154 138 1 0 1 1 155 0 0 156 157 158 159 160 161 0 0
 0 0 0 0 0 100 150 4 143 0 0 1 0 0 0 1 0 0 0 1 0 0 0 1 0 ?0 11 151 1 0 1 154 162
 1 0 143 0 0 12 154 333 163 164 0 0 0 0 0 0 0 1e3 1e-8 151 165 146 1 0 1 1 166 0
 0 167 168 169 170 171 172 0 0 0 0 0 0 0 100 162 2 151 0 0 1 0 0 0 1 0 0 0 1 0 0
 0 1 0 ?0 81 1 163 333 173 154 174 0 0 0 0 70 164 0 4 T154 0 0 4 20 1 175 175 13
 255 166 4 0 154 0 176 0 0 177 0 29 255 167 61 0 178 179 0 -.000650550007820129
 .002447479963302615 -.000513329982757568 201 13 4 MESH4 Mesh7 node_id0 0 1 d19
 attributes_features1019 0 5 owner1007 0 4 next1006 0 8 previous1006 0 15 geomet
ric_owner141 0 5 sense0 0 1 c8 mesh_box0 0 1 b9 transform100 0 7 rcv_key1041 0 9
 rcv_index0 0 1 d9 psm_imesh189 0 9 pff_imesh188 0 168 75 0 176 180 0 0 +-.00064
9200022220612 -.000647849977016449 .002444689989089965 .002447479963302615 -.000
517560005187988 -.000513329982757568 0 0 31 0 0 200 8 8 POLYLINE8 Polyline7 node
_id0 0 1 d19 attributes_features1019 0 5 owner1010 0 4 next1008 0 8 previous1008
 0 15 geometric_owner141 0 5 sense0 0 1 c4 data185 0 169 64 0 171 181 0 0 +182 1
9 8 CCCCCCCA5 owner12 0 Z170 5 0 154 177 0 183 V0 16 255 171 62 0 ?184 0 185 169
 0 0 154 18 255 172 46 0 186 0 187 188 ?154 17 255 186 0 189 190 191 172 192 185
 0 193 -18 187 36 0 194 172 178 195 ?154 29 188 55 0 172 195 196 -.0006478499770
16449 .002444689989089965 -.000513329982757568 29 195 50 0 187 197 188 -.0006505
50007820129 .002444689989089965 -.000513329982757568 29 196 56 0 198 188 179 -.0
00647849977016449 .002447479963302615 -.000513329982757568 18 198 26 0 192 178 1
99 196 ?154 29 179 60 0 199 196 167 -.000649469971656799 .002446670055389405 -.0
00517560005187988 18 199 16 0 200 198 201 179 ?154 17 200 0 202 203 204 199 184
 171 0 205 -18 201 11 0 190 199 206 197 ?154 17 190 0 189 207 186 201 208 209 0
 210 -18 206 8 0 211 201 0 212 ?154 29 197 45 0 201 212 195 -.000649200022220612
 .002445410013198855 -.000517560005187988 29 212 25 0 206 0 197 -.00064893001317
9779 .002446670055389405 -.000517560005187988 17 211 0 213 205 214 206 191 215 0
 216 +15 255 213 43 0 205 217 0 17 205 0 213 184 211 199 216 218 0 219 -17 214 0
 213 211 184 198 220 221 0 191 +17 191 0 189 186 207 198 211 215 0 0 -16 215 27
 0 ?211 221 218 222 0 0 154 17 216 0 223 224 219 206 205 218 0 207 +15 223 9 0 2
19 225 0 17 224 0 223 219 216 201 207 226 0 0 +17 219 0 223 216 224 199 203 227
 0 0 -16 218 22 0 ?216 215 227 228 0 0 154 17 207 0 189 191 190 206 224 226 0 0
 -15 189 58 0 186 176 0 16 226 12 0 ?224 227 0 229 0 0 154 16 227 17 0 ?203 218
 226 230 0 0 154 200 229 14 0 226 0 230 0 +231 200 230 19 0 227 229 228 0 +232 1
85 4 13 POLYLINE_DATA13 Polyline data7 n_pvecs0 0 1 d6 closed0 0 1 l9 base_parm0
 0 1 f4 pvec85 0 231 2 F0 233 85 255 2 233 -.000648930013179779 .002446670055389
405 -.000517560005187988 -.000649200022220612 .002445410013198855 -.000517560005
187988 200 228 24 0 218 230 222 0 +234 185 232 2 F0 235 85 2 235 -.0006494699716
56799 .002446670055389405 -.000517560005187988 -.000649200022220612 .00244541001
3198855 -.000517560005187988 200 222 29 0 215 228 236 0 +237 185 234 2 F0 238 85
 2 238 -.000649469971656799 .002446670055389405 -.000517560005187988 -.000648930
013179779 .002446670055389405 -.000517560005187988 200 236 34 0 221 222 239 0 +2
40 185 237 2 F0 241 85 2 241 -.000647849977016449 .002447479963302615 -.00051332
9982757568 -.000648930013179779 .002446670055389405 -.000517560005187988 16 221
 32 0 ?214 242 215 236 0 0 154 200 239 39 0 242 236 243 0 +244 185 240 2 F0 245
 85 2 245 -.000650550007820129 .002447479963302615 -.000513329982757568 -.000647
849977016449 .002447479963302615 -.000513329982757568 16 242 37 0 ?204 246 221 2
39 0 0 154 200 243 44 0 246 239 247 0 +248 185 244 2 F0 249 85 2 249 -.000650550
007820129 .002444689989089965 -.000513329982757568 -.000650550007820129 .0024474
79963302615 -.000513329982757568 16 246 42 0 ?210 209 242 243 0 0 154 200 247 49
 0 209 243 250 0 +251 185 248 2 F0 252 85 2 252 -.000650550007820129 .0024446899
89089965 -.000513329982757568 -.000649200022220612 .002445410013198855 -.0005175
60005187988 16 209 47 0 ?208 253 246 247 0 0 154 200 250 54 0 253 247 181 0 +254
 185 251 2 F0 255 85 2 255 -.000649200022220612 .002445410013198855 -.0005175600
05187988 -.000647849977016449 .002444689989089965 -.000513329982757568 16 253 52
 0 ?193 185 209 250 0 0 154 200 181 59 0 185 250 169 0 +256 185 254 2 F0 257 85
 2 257 -.000650550007820129 .002444689989089965 -.000513329982757568 -.000647849
977016449 .002444689989089965 -.000513329982757568 16 185 57 0 ?192 171 253 181
 0 0 154 185 256 2 F0 258 85 2 258 -.000647849977016449 .002444689989089965 -.00
0513329982757568 -.000647849977016449 .002447479963302615 -.000513329982757568 1
7 192 0 259 220 193 198 186 185 0 214 +15 259 23 0 193 260 0 17 220 0 259 261 19
2 178 214 221 0 0 -17 193 0 259 192 261 172 194 253 0 208 +17 261 0 259 193 220
 187 204 242 0 0 -17 194 0 262 210 208 187 193 253 0 263 -17 208 0 262 194 210 1
72 190 209 0 0 +15 262 53 0 194 264 0 17 210 0 262 208 194 201 263 246 0 203 +17
 263 0 202 204 203 187 210 246 0 261 -17 203 0 202 263 200 201 219 227 0 224 +15
 202 63 0 200 265 0 14 255 265 2 266 ?0 225 202 166 267 -0 0 0 225 183 81 1 266
 323 268 265 269 0 0 270 271 14 225 65 270 ?265 260 223 166 272 -0 0 265 260 183
 201 267 70 0 265 0 272 0 +-.000650550007820129 -.000649200022220612 .0024446899
89089965 .002447479963302615 -.000517560005187988 -.000513329982757568 0 0 36 0
 0 13 183 3 0 0 0 0 0 0 170 176 14 176 69 273 ?264 0 189 166 168 -0 0 264 0 183
 81 1 273 326 268 176 274 0 270 275 276 14 264 68 275 ?217 176 262 166 180 -0 0
 217 176 183 81 1 275 328 268 264 277 0 273 278 279 14 217 67 278 ?260 264 213 1
66 280 -0 0 260 264 183 201 180 74 0 264 280 168 0 +-.000650550007820129 -.00064
7849977016449 .002444689989089965 .002445410013198855 -.000517560005187988 -.000
513329982757568 0 0 32 0 0 201 280 73 0 217 281 180 0 +-.000650550007820129 -.00
0647849977016449 .002446670055389405 .002447479963302615 -.000517560005187988 -.
000513329982757568 0 0 33 0 0 201 281 72 0 260 272 280 0 +-.000650550007820129 -
.000647849977016449 .002444689989089965 .002447479963302615 -.000513329982757568
 -.000513329982757568 0 0 34 0 0 14 260 66 282 ?225 217 259 166 281 -0 0 225 217
 183 201 272 71 0 225 267 281 0 +-.000649469971656799 -.000648930013179779 .0024
45410013198855 .002446670055389405 -.000517560005187988 -.000517560005187988 0 0
 35 0 0 81 1 282 332 268 260 283 0 278 0 284 80 255 1 268 285 286 9000 1 1 1 1 1
 1 1 1 0 FFFFTFTFFFFFFF1 81 1 283 280 287 260 0 282 288 289 290 81 1 278 330 268
 217 288 0 275 282 291 82 255 1 284 48627821 81 1 288 279 287 217 0 278 277 283
 292 82 1 291 48693357 80 1 287 0 293 8001 0 0 0 0 3 5 0 0 0 FFFFTFTFFFFFFF2 81
 1 277 278 287 264 0 275 274 288 294 83 255 3 292 .792156862745098 .819607843137
255 .933333333333333 81 1 274 277 287 176 0 273 0 277 295 83 3 294 .792156862745
098 .819607843137255 .933333333333333 83 3 295 .792156862745098 .819607843137255
 .933333333333333 79 255 15 293 SDL/TYSA_COLOUR81 1 289 281 287 225 0 270 283 26
9 296 83 3 290 .792156862745098 .819607843137255 .933333333333333 81 1 270 325 2
68 225 289 0 266 273 297 81 1 269 282 287 265 0 266 289 0 298 83 3 296 .79215686
2745098 .819607843137255 .933333333333333 83 3 298 .792156862745098 .81960784313
7255 .933333333333333 82 1 297 48562285 79 14 286 SWEntUnchanged82 1 279 4875889
3 82 1 276 48824429 82 1 271 22806637 17 204 0 202 200 263 178 261 242 0 220 +18
 178 31 0 184 187 198 167 ?154 17 184 0 213 214 205 178 200 171 0 204 +19 177 1
 0 154 0 170 166 S0 185 182 2 F0 299 85 2 299 -.000649469971656799 .002446670055
389405 -.000517560005187988 -.000650550007820129 .002447479963302615 -.000513329
982757568 74 4 CI16 index_map_offset0 0 1 dCCZ20 175 4 0 0 174 282 269 163 0 0 0
 0 0 0 0 0 0 0 0 0 0 0 0 0 81 2 174 102 300 154 0 163 0 0 301 0 80 2 300 302 303
 8004 0 0 0 0 3 5 0 0 0 FFTFFFFFFFFFFF2 3 83 1 301 1 79 16 303 SDL/TYSA_DENSITY8
0 1 173 304 305 8017 0 0 0 0 0 0 0 0 0 TTTTTTTTTTTTTF3 79 13 305 SDL/TYSA_NAME81
 1 152 209 173 146 0 0 0 0 0 70 153 0 4 T146 0 0 3 20 1 306 306 13 155 4 0 146 0
 307 0 0 308 0 29 156 36 0 309 310 0 -.000649200022220612 .002452879905700685 -.
000537630021572113 201 157 46 0 307 311 0 0 +-.000649829983711243 -.000648570001
125336 .00243991994857788 .00243991994857788 -.000544019997119904 -.000537630021
572113 0 0 27 0 0 200 158 39 0 160 312 0 0 +313 19 159 5 0 146 308 0 314 V0 16 1
60 37 0 ?315 0 316 158 0 0 146 18 161 21 0 317 0 318 319 ?146 17 317 0 320 321 3
22 161 323 316 0 324 +18 318 16 0 325 161 309 310 ?146 29 319 31 0 161 326 310 -
.000649200022220612 .00243991994857788 -.000544019997119904 29 326 30 0 327 0 31
9 -.000649200022220612 .00243991994857788 -.000537630021572113 29 310 35 0 318 3
19 156 -.000649200022220612 .002452879905700685 -.000544019997119904 18 327 8 0
 323 309 0 326 ?146 17 323 0 328 324 324 327 317 316 0 329 -18 309 11 0 315 318
 327 156 ?146 17 315 0 320 322 321 309 325 160 0 330 +15 320 9 0 321 331 0 17 32
2 0 320 317 315 327 332 333 0 0 -17 321 0 320 315 317 318 334 335 0 336 -17 325
 0 337 330 330 318 315 160 0 321 -17 330 0 337 325 325 309 336 338 0 332 -15 337
 38 0 325 339 0 17 336 0 340 334 332 318 330 338 0 0 +16 338 17 0 ?336 335 333 3
41 0 0 146 17 332 0 340 336 329 309 322 333 0 0 +15 340 28 0 329 342 0 17 329 0
 340 332 334 327 324 343 0 322 -16 333 12 0 ?332 338 0 344 0 0 146 200 344 14 0
 333 0 341 0 +345 200 341 19 0 338 344 346 0 +347 185 345 2 F0 348 85 2 348 -.00
0649200022220612 .00243991994857788 -.000537630021572113 -.000649200022220612 .0
02452879905700685 -.000537630021572113 200 346 24 0 335 341 349 0 +350 185 347 3
 F0 351 85 3 351 -.000649200022220612 .002452879905700685 -.000537630021572113 -
.000649829983711243 .002452879905700685 -.000540239989757538 -.00064920002222061
2 .002452879905700685 -.000544019997119904 16 335 22 0 ?334 343 338 346 0 0 146
 200 349 29 0 343 346 312 0 +352 185 350 2 F0 353 85 2 353 -.000649200022220612
 .002452879905700685 -.000544019997119904 -.000649200022220612 .0024399199485778
8 -.000544019997119904 16 343 27 0 ?324 316 335 349 0 0 146 200 312 34 0 316 349
 158 0 +354 185 352 3 F0 355 85 3 355 -.000649200022220612 .00243991994857788 -.
000537630021572113 -.000649829983711243 .00243991994857788 -.000540239989757538
 -.000649200022220612 .00243991994857788 -.000544019997119904 16 316 32 0 ?317 1
60 343 312 0 0 146 185 354 3 F0 356 85 3 356 -.000649200022220612 .0024399199485
7788 -.000537630021572113 -.000648570001125336 .00243991994857788 -.000540239989
757538 -.000649200022220612 .00243991994857788 -.000544019997119904 17 324 0 328
 323 323 161 329 343 0 334 +15 328 33 0 323 307 0 17 334 0 340 329 336 161 321 3
35 0 0 +14 307 42 357 ?342 0 328 155 157 -0 0 342 0 314 81 1 357 204 268 307 358
 0 0 359 360 14 342 41 359 ?331 307 340 155 311 -0 0 331 307 314 13 314 3 0 0 0
 0 0 0 159 307 81 1 359 205 268 342 361 0 357 362 363 14 331 40 362 ?339 342 320
 155 364 -0 0 339 342 314 201 311 45 0 342 364 157 0 +-.000649829983711243 -.000
649200022220612 .00243991994857788 .002452879905700685 -.000544019997119904 -.00
0537630021572113 0 0 28 0 0 201 364 44 0 331 365 311 0 +-.000649200022220612 -.0
00648570001125336 .00243991994857788 .002452879905700685 -.000544019997119904 -.
000537630021572113 0 0 29 0 0 201 365 43 0 339 0 364 0 +-.000649829983711243 -.0
00648570001125336 .002452879905700685 .002452879905700685 -.000544019997119904 -
.000537630021572113 0 0 30 0 0 14 339 2 366 ?0 331 337 155 365 -0 0 0 331 314 81
 1 366 208 268 339 367 0 362 0 368 81 1 367 186 287 339 0 366 369 0 370 81 1 362
 206 268 331 369 0 359 366 371 82 1 368 26214517 81 1 369 185 287 331 0 362 361
 367 372 82 1 371 61997173 81 1 361 184 287 342 0 359 358 369 373 83 3 372 .7921
56862745098 .819607843137255 .933333333333333 81 1 358 183 287 307 0 357 0 361 3
74 83 3 373 .792156862745098 .819607843137255 .933333333333333 83 3 374 .7921568
62745098 .819607843137255 .933333333333333 83 3 370 .792156862745098 .8196078431
37255 .933333333333333 82 1 363 62062709 82 1 360 62128245 19 308 1 0 146 0 159
 155 S0 185 313 3 F0 375 85 3 375 -.000649200022220612 .002452879905700685 -.000
544019997119904 -.000648570001125336 .002452879905700685 -.000540239989757538 -.
000649200022220612 .002452879905700685 -.000537630021572113 74 20 306 3 0 0 366
 367 152 0 0 0 0 0 0 0 0 0 0 0 0 0 0 0 0 0 81 1 144 48 173 138 0 0 0 0 0 70 145
 0 4 T138 0 0 3 20 1 376 376 13 147 4 0 138 0 377 0 0 378 0 201 148 7 0 377 0 0
 0 +?0 0 26 0 0 19 149 5 0 138 378 0 379 V0 19 378 1 0 138 0 149 147 S0 13 379 3
 0 0 0 0 0 0 149 377 14 377 2 380 ?0 0 0 147 148 -0 0 0 0 379 81 1 380 47 268 37
7 381 0 0 0 382 81 1 381 42 287 377 0 380 0 0 383 82 1 382 106758269 83 3 383 .7
92156862745098 .819607843137255 .933333333333333 74 20 376 3 0 0 381 380 144 0 0
 0 0 0 0 0 0 0 0 0 0 0 0 0 0 0 81 1 136 48 173 126 0 0 0 0 0 70 137 0 4 T126 0 0
 3 20 1 384 384 13 139 4 0 126 0 385 0 0 386 0 201 140 7 0 385 0 0 0 +?0 0 25 0
 0 19 141 5 0 126 386 0 387 V0 19 386 1 0 126 0 141 139 S0 13 387 3 0 0 0 0 0 0
 141 385 14 385 2 388 ?0 0 0 139 140 -0 0 0 0 387 81 1 388 47 268 385 389 0 0 0
 390 81 1 389 42 287 385 0 388 0 0 391 82 1 390 110166149 83 3 391 .792156862745
098 .819607843137255 .933333333333333 74 20 384 3 0 0 389 388 136 0 0 0 0 0 0 0
 0 0 0 0 0 0 0 0 0 0 81 1 124 315 173 114 0 0 0 0 0 70 125 0 4 T114 0 0 3 20 1 3
92 392 13 127 3 0 114 0 393 0 0 131 393 29 128 60 0 394 395 0 -.0006492000222206
12 .00243325996398926 -.000530520021915436 201 129 72 0 393 396 0 0 +-.000649200
022220612 -.000644070029258728 .002415800094604495 .00243325996398926 -.00053132
9989433289 -.000526199996471405 0 0 20 0 0 200 130 76 0 397 398 0 0 +399 19 131
 5 0 114 0 0 127 V0 16 132 61 0 ?400 0 401 402 0 0 114 18 133 40 0 403 0 404 405
 ?114 17 403 0 406 407 408 133 409 410 0 411 +18 404 35 0 412 133 394 395 ?114 2
9 405 52 0 133 413 395 -.000649200022220612 .00243325996398926 -.000521879971027
374 29 413 49 0 414 415 405 -.000644879996776581 .00243325996398926 -.0005261999
96471405 29 395 56 0 404 405 128 -.000653519988059998 .00243325996398926 -.00052
6199996471405 18 414 27 0 416 394 417 413 ?114 29 415 26 0 417 418 413 -.0006492
00022220612 .002415800094604495 -.000521070003509521 18 417 23 0 409 414 419 415
 ?114 29 418 22 0 419 420 415 -.000644070029258728 .002415800094604495 -.0005261
99996471405 18 419 19 0 421 417 422 418 ?114 29 420 18 0 422 423 418 -.000649200
022220612 .002415800094604495 -.000531329989433289 18 422 15 0 400 419 424 420 ?
114 29 423 14 0 424 0 420 -.000654330015182495 .002415800094604495 -.00052619999
6471405 18 424 13 0 425 422 0 423 ?114 17 425 0 426 427 428 424 412 401 0 429 -1
5 426 62 0 430 431 0 17 427 0 426 430 425 422 432 433 0 0 +17 428 0 426 425 430
 404 434 435 0 0 -17 412 0 436 437 429 404 425 401 0 438 +16 401 57 0 ?412 132 4
10 439 0 0 114 17 429 0 436 412 409 424 440 441 0 432 +15 436 54 0 429 442 0 17
 409 0 436 429 437 417 403 410 0 440 -17 440 0 0 0 0 417 429 441 0 408 -16 441 2
4 0 ?429 443 0 398 0 0 114 17 432 0 0 0 0 424 427 433 0 0 -16 433 6 0 ?427 444 3
97 445 0 0 114 16 444 31 0 ?446 435 433 447 0 0 114 16 397 16 0 ?448 433 443 130
 0 0 114 200 445 73 0 433 402 449 0 +450 200 402 63 0 132 439 445 0 +451 200 449
 74 0 443 445 398 0 +452 185 450 2 F0 453 85 2 453 -.000654330015182495 .0024158
00094604495 -.000526199996471405 -.000649200022220612 .002415800094604495 -.0005
31329989433289 16 443 20 0 ?408 397 441 449 0 0 114 200 398 75 0 441 449 130 0 +
454 185 452 2 F145098112431484e-19 455 85 2 455 -.000644070029258728 .0024158000
94604495 -.000526199996471405 -.000649200022220612 .002415800094604495 -.0005210
70003509521 185 454 2 F217647168647227e-19 456 85 2 456 -.000649200022220612 .00
2415800094604495 -.000521070003509521 -.000654330015182495 .002415800094604495 -
.000526199996471405 17 408 0 406 403 421 417 457 443 0 0 +15 406 47 0 408 458 0
 17 421 0 406 408 407 419 416 459 0 457 +17 457 0 0 0 0 419 408 443 0 448 -17 44
8 0 460 416 400 419 461 397 0 0 +15 460 58 0 446 393 0 17 416 0 460 446 448 414
 421 459 0 407 -17 400 0 460 448 446 422 430 132 0 461 +17 461 0 0 0 0 422 448 3
97 0 427 -17 446 0 460 400 416 394 462 444 0 0 +17 430 0 426 428 427 394 400 132
 0 434 -18 394 30 0 430 404 414 128 ?114 17 434 0 463 462 438 394 428 435 0 446
 +15 463 28 0 462 464 0 17 462 0 463 411 434 414 446 444 0 0 -17 438 0 463 434 4
11 404 437 465 0 428 +16 435 36 0 ?434 465 444 466 0 0 114 16 465 41 0 ?438 467
 435 468 0 0 114 200 466 38 0 435 447 468 0 +469 200 447 33 0 444 0 466 0 +470 2
00 468 43 0 465 466 471 0 +472 185 469 2 F0 473 85 2 473 -.000653519988059998 .0
0243325996398926 -.000526199996471405 -.000649200022220612 .00243325996398926 -.
000530520021915436 200 471 48 0 467 468 474 0 +475 185 472 2 F0 476 85 2 476 -.0
00649200022220612 .00243325996398926 -.000521879971027374 -.000653519988059998 .
00243325996398926 -.000526199996471405 16 467 46 0 ?411 459 465 471 0 0 114 200
 474 51 0 459 471 477 0 +478 185 475 2 F0 479 85 2 479 -.000644879996776581 .002
43325996398926 -.000526199996471405 -.000649200022220612 .00243325996398926 -.00
0521879971027374 16 459 50 0 ?421 410 467 474 0 0 114 200 477 55 0 410 474 439 0
 +480 185 478 2 F0 481 85 2 481 -.000644879996776581 .00243325996398926 -.000526
199996471405 -.000644070029258728 .002415800094604495 -.000526199996471405 16 41
0 53 0 ?403 401 459 477 0 0 114 200 439 59 0 401 477 402 0 +482 185 480 2 F0 483
 85 2 483 -.000649200022220612 .002415800094604495 -.000521070003509521 -.000649
200022220612 .00243325996398926 -.000521879971027374 185 482 2 F0 484 85 2 484 -
.000654330015182495 .002415800094604495 -.000526199996471405 -.00065351998805999
8 .00243325996398926 -.000526199996471405 17 411 0 463 438 462 133 407 467 0 437
 +17 407 0 406 421 403 414 411 467 0 462 -17 437 0 436 409 412 133 438 465 0 0 -
185 470 2 F0 485 85 2 485 -.000644879996776581 .00243325996398926 -.000526199996
471405 -.000649200022220612 .00243325996398926 -.000530520021915436 14 464 64 48
6 ?431 458 463 127 487 +0 0 431 458 127 81 1 486 314 268 464 488 0 489 0 490 14
 431 2 491 ?0 464 426 127 492 +0 0 0 464 127 14 458 65 489 ?464 442 406 127 493
 +0 0 464 442 127 201 487 69 0 464 492 493 0 +-.000653519988059998 -.00064487999
6776581 .00243325996398926 .00243325996398926 -.000530520021915436 -.00052187997
1027374 0 0 23 0 0 201 492 68 0 431 0 487 0 +-.000654330015182495 -.000649200022
220612 .002415800094604495 .00243325996398926 -.000531329989433289 -.00052619999
6471405 0 0 24 0 0 201 493 70 0 458 487 396 0 +-.000649200022220612 -.0006440700
29258728 .002415800094604495 .00243325996398926 -.000526199996471405 -.000521070
003509521 0 0 22 0 0 201 396 71 0 442 493 129 0 +-.000654330015182495 -.00064920
0022220612 .002415800094604495 .00243325996398926 -.000526199996471405 -.0005210
70003509521 0 0 21 0 0 14 442 66 494 ?458 393 436 127 396 +0 0 458 393 127 81 1
 494 310 268 442 495 0 496 489 497 14 393 67 496 ?442 0 460 127 129 +0 0 442 0 1
27 81 1 496 308 268 393 498 0 491 494 499 81 1 498 255 287 393 0 496 0 495 500 8
1 1 491 306 268 431 501 0 0 496 502 82 1 499 32440423 81 1 501 259 287 431 0 491
 488 0 503 82 1 502 18874471 81 1 488 258 287 464 0 486 504 501 505 83 3 503 .79
2156862745098 .819607843137255 .933333333333333 81 1 504 257 287 458 0 489 495 4
88 506 83 3 505 .792156862745098 .819607843137255 .933333333333333 81 1 489 312
 268 458 504 0 494 486 507 81 1 495 256 287 442 0 494 498 504 508 83 3 506 .7921
56862745098 .819607843137255 .933333333333333 83 3 508 .792156862745098 .8196078
43137255 .933333333333333 82 1 507 32309351 83 3 500 .792156862745098 .819607843
137255 .933333333333333 82 1 497 32374887 82 1 490 32243815 185 451 2 F0 509 85
 2 509 -.000649200022220612 .00243325996398926 -.000530520021915436 -.0006492000
22220612 .002415800094604495 -.000531329989433289 185 399 2 F725490562157416e-20
 510 85 2 510 -.000649200022220612 .002415800094604495 -.000531329989433289 -.00
0644070029258728 .002415800094604495 -.000526199996471405 74 20 392 3 0 0 486 50
1 124 0 0 0 0 0 0 0 0 0 0 0 0 0 0 0 0 0 81 1 112 314 173 104 0 0 0 0 0 70 113 0
 4 T104 0 0 3 20 1 511 511 13 115 3 0 104 0 512 0 0 119 512 29 116 59 0 513 514
 0 -.000645600020885468 .00241769003868103 -.000520709991455078 201 117 71 0 512
 515 0 0 +-.000652800023555756 -.000652800023555756 .00241769003868103 .00242525
005340576 -.000525569975376129 -.000520709991455078 0 0 15 0 0 200 118 75 0 516
 517 0 0 +518 19 119 5 0 104 0 0 115 V0 16 120 60 0 ?519 0 520 521 0 0 104 18 12
1 46 0 522 0 523 514 ?104 17 522 0 524 525 526 121 527 520 0 528 -18 523 37 0 52
5 121 513 529 ?104 29 514 55 0 121 530 116 -.000652800023555756 .002425250053405
76 -.000520709991455078 29 530 50 0 531 529 514 -.000645600020885468 .0024252500
5340576 -.000520709991455078 18 531 27 0 532 513 533 530 ?104 29 529 45 0 523 53
4 530 -.000652800023555756 .00241769003868103 -.000520709991455078 29 534 26 0 5
33 535 529 -.000645600020885468 .00241769003868103 -.000525569975376129 18 533 2
3 0 536 531 537 534 ?104 29 535 22 0 537 538 534 -.000645600020885468 .002425250
05340576 -.000525569975376129 18 537 19 0 539 533 540 535 ?104 29 538 18 0 540 5
41 535 -.000652800023555756 .00242525005340576 -.000525569975376129 18 540 15 0
 527 537 542 538 ?104 29 541 14 0 542 0 538 -.000652800023555756 .00241769003868
103 -.000525569975376129 18 542 13 0 543 540 0 541 ?104 17 543 0 524 526 525 542
 544 545 0 546 -15 524 57 0 522 512 0 17 526 0 524 522 543 540 547 516 0 0 +17 5
25 0 524 543 522 523 548 549 0 544 -17 544 0 550 551 546 523 543 545 0 552 +16 5
45 42 0 ?544 549 553 554 0 0 104 17 546 0 550 544 536 542 555 556 0 547 +15 550
 61 0 536 557 0 17 536 0 550 546 551 533 519 120 0 555 -17 555 0 0 0 0 533 546 5
56 0 558 -16 556 24 0 ?546 559 0 560 0 0 104 17 547 0 0 0 0 542 526 516 0 0 -16
 516 6 0 ?526 561 562 118 0 0 104 16 561 28 0 ?539 563 516 564 0 0 104 16 562 16
 0 ?565 516 559 517 0 0 104 17 565 0 566 567 527 537 568 562 0 0 +16 559 20 0 ?5
58 562 556 569 0 0 104 200 517 74 0 562 569 118 0 +570 200 569 73 0 559 560 517
 0 +571 185 570 2 F756001472473162e-20 572 85 2 572 -.000652800023555756 .002425
25005340576 -.000525569975376129 -.000645600020885468 .00242525005340576 -.00052
5569975376129 200 560 72 0 556 521 569 0 +573 185 571 2 F1476001739501962e-20 57
4 85 2 574 -.000645600020885468 .00242525005340576 -.000525569975376129 -.000645
600020885468 .00241769003868103 -.000525569975376129 200 521 62 0 120 575 560 0
 +576 185 573 2 F2232003211975125e-20 577 85 2 577 -.000645600020885468 .0024176
9003868103 -.000525569975376129 -.000652800023555756 .00241769003868103 -.000525
569975376129 200 575 58 0 520 578 521 0 +579 185 576 2 F0 580 85 2 580 -.0006456
00020885468 .00241769003868103 -.000525569975376129 -.000645600020885468 .002417
69003868103 -.000520709991455078 16 520 56 0 ?527 120 581 575 0 0 104 200 578 54
 0 581 582 575 0 +583 185 579 2 F0 584 85 2 584 -.000652800023555756 .0024252500
5340576 -.000520709991455078 -.000652800023555756 .00242525005340576 -.000525569
975376129 16 581 52 0 ?528 520 549 578 0 0 104 200 582 49 0 549 554 578 0 +585 1
85 583 2 F0 586 85 2 586 -.000645600020885468 .00242525005340576 -.0005207099914
55078 -.000652800023555756 .00242525005340576 -.000520709991455078 16 549 47 0 ?
548 581 545 582 0 0 104 200 554 44 0 545 587 582 0 +588 185 585 2 F0 589 85 2 58
9 -.000652800023555756 .00241769003868103 -.000520709991455078 -.000652800023555
756 .00242525005340576 -.000520709991455078 200 587 40 0 553 590 554 0 +591 185
 588 2 F0 592 85 2 592 -.000652800023555756 .00241769003868103 -.000525569975376
129 -.000652800023555756 .00241769003868103 -.000520709991455078 16 553 38 0 ?55
2 545 563 587 0 0 104 200 590 35 0 563 564 587 0 +593 185 591 2 F0 594 85 2 594
 -.000645600020885468 .00241769003868103 -.000520709991455078 -.0006528000235557
56 .00241769003868103 -.000520709991455078 16 563 33 0 ?595 553 561 590 0 0 104
 200 564 30 0 561 0 590 0 +596 185 593 2 F0 597 85 2 597 -.000645600020885468 .0
0242525005340576 -.000520709991455078 -.000645600020885468 .00241769003868103 -.
000520709991455078 185 596 2 F0 598 85 2 598 -.000645600020885468 .0024252500534
0576 -.000520709991455078 -.000645600020885468 .00242525005340576 -.000525569975
376129 17 595 0 599 552 532 513 600 563 0 0 +15 599 53 0 532 601 0 17 552 0 599
 548 595 523 551 553 0 0 +17 532 0 599 595 548 531 528 581 0 600 -18 513 32 0 51
9 523 531 116 ?104 17 600 0 602 539 519 531 595 563 0 567 -15 602 7 0 558 603 0
 17 539 0 602 558 600 537 567 561 0 604 +17 519 0 602 600 558 513 536 120 0 551
 +17 567 0 566 528 565 531 539 561 0 0 -15 566 43 0 528 605 0 17 528 0 566 527 5
67 121 532 581 0 548 +17 527 0 566 565 528 540 522 520 0 568 +17 548 0 599 532 5
52 121 525 549 0 0 +17 568 0 0 0 0 540 565 562 0 526 -14 605 64 606 ?603 601 566
 115 607 +0 0 603 601 115 81 1 606 305 268 605 608 0 0 609 610 14 603 63 609 ?55
7 605 602 115 611 +0 0 557 605 115 14 601 65 612 ?605 512 599 115 515 +0 0 605 5
12 115 201 607 69 0 605 611 515 0 +-.000652800023555756 -.000645600020885468 .00
242525005340576 .00242525005340576 -.000525569975376129 -.000520709991455078 0 0
 17 0 0 201 611 68 0 603 613 607 0 +-.000645600020885468 -.000645600020885468 .0
0241769003868103 .00242525005340576 -.000525569975376129 -.000520709991455078 0
 0 18 0 0 201 515 70 0 601 607 117 0 +-.000652800023555756 -.000645600020885468
 .00241769003868103 .00242525005340576 -.000520709991455078 -.000520709991455078
 0 0 16 0 0 201 613 67 0 557 0 611 0 +-.000652800023555756 -.000645600020885468
 .00241769003868103 .00241769003868103 -.000525569975376129 -.000520709991455078
 0 0 19 0 0 14 557 2 614 ?0 603 550 115 613 +0 0 0 603 115 81 1 614 311 268 557
 615 0 612 616 617 81 1 615 258 287 557 0 614 618 0 619 81 1 612 309 268 601 620
 0 609 614 621 81 1 616 313 268 512 622 0 614 0 623 82 1 617 999999 14 512 66 61
6 ?601 0 524 115 117 +0 0 601 0 115 81 1 622 254 287 512 0 616 0 620 624 82 1 62
3 999999 81 1 620 255 287 601 0 612 622 608 625 83 3 624 .792156862745098 .81960
7843137255 .933333333333333 81 1 608 256 287 605 0 606 620 618 626 83 3 625 .792
156862745098 .819607843137255 .933333333333333 81 1 618 257 287 603 0 609 608 61
5 627 83 3 626 .792156862745098 .819607843137255 .933333333333333 81 1 609 307 2
68 603 618 0 606 612 628 83 3 627 .792156862745098 .819607843137255 .93333333333
3333 82 1 628 999999 82 1 621 999999 83 3 619 .792156862745098 .819607843137255
 .933333333333333 82 1 610 999999 17 558 0 602 519 539 533 604 559 0 0 +17 551 0
 550 536 544 513 552 553 0 595 -17 604 0 0 0 0 537 558 559 0 565 -185 518 2 F0 6
29 85 2 629 -.000652800023555756 .00241769003868103 -.000525569975376129 -.00065
2800023555756 .00242525005340576 -.000525569975376129 74 20 511 3 0 0 616 615 11
2 0 0 0 0 0 0 0 0 0 0 0 0 0 0 0 0 0 81 1 102 81 173 92 0 0 0 0 0 70 103 0 4 T92
 0 0 3 20 1 630 630 13 105 3 0 92 0 631 0 0 108 631 201 106 17 0 631 0 0 0 +-.00
0650910019874573 -.00064749002456665 .002430830001831055 .00244523000717163 -.00
0527909994125366 -.000524489998817444 0 0 14 0 0 200 107 15 0 109 632 0 0 +633 1
9 108 5 0 92 0 0 105 V0 16 109 10 0 ?634 0 635 107 0 0 92 17 634 0 636 634 634 0
 637 109 0 0 +16 635 6 0 ?638 109 0 632 0 0 92 17 638 0 639 638 638 0 640 635 0
 0 +200 632 14 0 635 0 107 0 +641 185 641 5 T0 642 85 5 642 -.000650910019874573
 .002430830001831055 -.000526199996471405 -.000649200022220612 .0024308300018310
55 -.000527909994125366 -.00064749002456665 .002430830001831055 -.00052619999647
1405 -.000649200022220612 .002430830001831055 -.000524489998817444 -.00065091001
9874573 .002430830001831055 -.000526199996471405 15 639 7 0 638 631 0 17 640 0 0
 0 0 0 638 635 0 0 -14 631 2 643 ?0 0 636 105 106 +0 0 0 0 105 81 1 643 80 268 6
31 644 0 0 0 645 15 636 11 0 634 631 639 81 1 644 73 287 631 0 643 0 0 646 82 1
 645 999999 83 3 646 .792156862745098 .819607843137255 .933333333333333 17 637 0
 0 0 0 0 634 109 0 0 -185 633 5 T0 647 85 5 647 -.000649200022220612 .0024452300
0717163 -.00052727997303009 -.000650279998779297 .00244523000717163 -.0005261999
96471405 -.000649200022220612 .00244523000717163 -.00052512001991272 -.000648119
986057282 .00244523000717163 -.000526199996471405 -.000649200022220612 .00244523
000717163 -.00052727997303009 74 20 630 3 0 0 644 643 102 0 0 0 0 0 0 0 0 0 0 0
 0 0 0 0 0 0 81 1 90 314 173 82 0 0 0 0 0 70 91 0 4 T82 0 0 3 20 1 648 648 13 93
 3 0 82 0 649 0 0 97 649 29 94 59 0 650 651 0 -.000649200022220612 .002447659969
329835 -.000525210022926331 201 95 71 0 649 652 0 0 +-.000650189995765686 -.0006
48209989070892 .002447659969329835 .002447659969329835 -.000527190029621124 -.00
0525210022926331 0 0 9 0 0 200 96 75 0 653 654 0 0 +655 19 97 5 0 82 0 0 93 V0 1
6 98 60 0 ?656 0 657 658 0 0 82 18 99 46 0 659 0 660 651 ?82 17 659 0 661 662 66
3 99 664 657 0 665 +18 660 37 0 666 99 650 667 ?82 29 651 55 0 99 668 94 -.00064
9200022220612 .002447659969329835 -.000527190029621124 29 668 54 0 669 667 651 -
.000648209989070892 .002447659969329835 -.000526199996471405 18 669 27 0 664 650
 670 668 ?82 29 667 45 0 660 671 668 -.000650189995765686 .002447659969329835 -.
000526199996471405 29 671 26 0 670 672 667 -.000649200022220612 .002445230007171
63 -.00052512001991272 18 670 23 0 673 669 674 671 ?82 29 672 22 0 674 675 671 -
.000648119986057282 .00244523000717163 -.000526199996471405 18 674 19 0 676 670
 677 672 ?82 29 675 18 0 677 678 672 -.000649200022220612 .00244523000717163 -.0
0052727997303009 18 677 15 0 662 674 679 675 ?82 29 678 14 0 679 0 675 -.0006502
79998779297 .00244523000717163 -.000526199996471405 18 679 13 0 680 677 0 678 ?8
2 17 680 0 681 682 666 679 683 684 0 685 -15 681 43 0 682 686 0 17 682 0 681 665
 680 677 687 688 0 0 +17 666 0 681 680 665 660 689 690 0 683 -17 683 0 691 692 6
85 660 680 684 0 693 +16 684 42 0 ?683 690 694 695 0 0 82 17 685 0 691 683 673 6
79 696 697 0 687 +15 691 61 0 673 698 0 17 673 0 691 685 692 670 656 98 0 696 -1
7 696 0 0 0 0 670 685 697 0 699 -16 697 24 0 ?685 700 0 701 0 0 82 17 687 0 0 0
 0 679 682 688 0 0 -16 688 6 0 ?682 702 653 654 0 0 82 16 702 28 0 ?663 703 688
 704 0 0 82 16 653 16 0 ?705 688 700 96 0 0 82 200 654 74 0 688 706 96 0 +707 20
0 706 73 0 700 701 654 0 +708 185 707 2 F0 709 85 2 709 -.000650279998779297 .00
244523000717163 -.000526199996471405 -.000649200022220612 .00244523000717163 -.0
0052727997303009 16 700 20 0 ?699 653 697 706 0 0 82 200 701 72 0 697 658 706 0
 +710 185 708 2 F305467714010584e-20 711 85 2 711 -.000648119986057282 .00244523
000717163 -.000526199996471405 -.000649200022220612 .00244523000717163 -.0005251
2001991272 200 658 62 0 98 712 701 0 +713 185 710 2 F458203678387355e-20 714 85
 2 714 -.000649200022220612 .00244523000717163 -.00052512001991272 -.00065027999
8779297 .00244523000717163 -.000526199996471405 200 712 58 0 657 715 658 0 +716
 185 713 2 F0 717 85 2 717 -.000649200022220612 .00244523000717163 -.00052512001
991272 -.000649200022220612 .002447659969329835 -.000525210022926331 16 657 56 0
 ?659 98 718 712 0 0 82 200 715 53 0 718 719 712 0 +720 185 716 2 F0 721 85 2 72
1 -.000648209989070892 .002447659969329835 -.000526199996471405 -.00064920002222
0612 .002447659969329835 -.000527190029621124 16 718 51 0 ?665 657 690 715 0 0 8
2 200 719 49 0 690 695 715 0 +722 185 720 2 F0 723 85 2 723 -.000649200022220612
 .00244523000717163 -.00052727997303009 -.000649200022220612 .002447659969329835
 -.000527190029621124 16 690 47 0 ?689 718 684 719 0 0 82 200 695 44 0 684 724 7
19 0 +725 185 722 2 F0 726 85 2 726 -.000650189995765686 .002447659969329835 -.0
00526199996471405 -.000649200022220612 .002447659969329835 -.000527190029621124
 200 724 40 0 694 727 695 0 +728 185 725 2 F0 729 85 2 729 -.000650279998779297
 .00244523000717163 -.000526199996471405 -.000650189995765686 .00244765996932983
5 -.000526199996471405 16 694 38 0 ?693 684 703 724 0 0 82 200 727 35 0 703 704
 724 0 +730 185 728 2 F0 731 85 2 731 -.000649200022220612 .002447659969329835 -
.000525210022926331 -.000650189995765686 .002447659969329835 -.00052619999647140
5 16 703 33 0 ?732 694 702 727 0 0 82 200 704 30 0 702 0 727 0 +733 185 730 2 F0
 734 85 2 734 -.000648209989070892 .002447659969329835 -.000526199996471405 -.00
0649200022220612 .002447659969329835 -.000525210022926331 185 733 2 F0 735 85 2
 735 -.000648119986057282 .00244523000717163 -.000526199996471405 -.000648209989
070892 .002447659969329835 -.000526199996471405 17 732 0 736 693 664 650 737 703
 0 0 +15 736 57 0 664 649 0 17 693 0 736 689 732 660 692 694 0 0 +17 664 0 736 7
32 689 669 659 657 0 737 -18 650 32 0 656 660 669 94 ?82 17 737 0 738 676 656 66
9 732 703 0 663 -15 738 7 0 699 739 0 17 676 0 738 699 737 674 663 702 0 740 -17
 656 0 738 737 699 650 673 98 0 692 +17 663 0 661 659 705 669 676 702 0 0 +15 66
1 52 0 663 741 0 17 705 0 661 663 662 674 742 653 0 0 +17 662 0 661 705 659 677
 665 718 0 742 -17 742 0 0 0 0 677 705 653 0 682 -17 665 0 681 666 682 99 662 71
8 0 689 +17 689 0 736 664 693 99 666 690 0 0 +14 741 65 743 ?686 649 661 93 652
 +0 0 686 649 93 81 1 743 305 268 741 744 0 0 745 746 14 686 64 745 ?739 741 681
 93 747 +0 0 739 741 93 14 649 66 748 ?741 0 736 93 95 +0 0 741 0 93 201 652 70
 0 741 747 95 0 +-.000649200022220612 -.000648119986057282 .00244523000717163 .0
02447659969329835 -.00052727997303009 -.000526199996471405 0 0 10 0 0 201 747 69
 0 686 749 652 0 +-.000650279998779297 -.000649200022220612 .00244523000717163 .
002447659969329835 -.00052727997303009 -.000526199996471405 0 0 11 0 0 201 749 6
8 0 739 750 747 0 +-.000649200022220612 -.000648119986057282 .00244523000717163
 .002447659969329835 -.000526199996471405 -.00052512001991272 0 0 12 0 0 14 739
 63 751 ?698 686 738 93 749 +0 0 698 686 93 201 750 67 0 698 0 749 0 +-.00065027
9998779297 -.000649200022220612 .00244523000717163 .002447659969329835 -.0005261
99996471405 -.00052512001991272 0 0 13 0 0 14 698 2 752 ?0 739 691 93 750 +0 0 0
 739 93 81 1 752 313 268 698 753 0 751 0 754 81 1 753 258 287 698 0 752 755 0 75
6 81 1 751 311 268 739 755 0 748 752 757 82 1 754 999999 81 1 755 257 287 739 0
 751 758 753 759 81 1 748 309 268 649 760 0 745 751 761 82 1 757 999999 81 1 760
 254 287 649 0 748 0 744 762 81 1 745 307 268 686 758 0 743 748 763 82 1 761 999
999 81 1 758 256 287 686 0 745 744 755 764 82 1 763 999999 81 1 744 255 287 741
 0 743 760 758 765 83 3 764 .792156862745098 .819607843137255 .933333333333333 8
3 3 765 .792156862745098 .819607843137255 .933333333333333 83 3 762 .79215686274
5098 .819607843137255 .933333333333333 83 3 759 .792156862745098 .81960784313725
5 .933333333333333 83 3 756 .792156862745098 .819607843137255 .933333333333333 8
2 1 746 999999 17 699 0 738 656 676 670 740 700 0 0 +17 692 0 691 673 683 650 69
3 694 0 732 -17 740 0 0 0 0 674 699 700 0 705 -185 655 2 F152731749633783e-20 76
6 85 2 766 -.000649200022220612 .00244523000717163 -.00052727997303009 -.0006481
19986057282 .00244523000717163 -.000526199996471405 74 20 648 3 0 0 752 753 90 0
 0 0 0 0 0 0 0 0 0 0 0 0 0 0 0 0 81 1 80 74 173 72 0 0 0 0 0 70 81 0 4 T72 0 0 3
 20 1 767 767 13 83 3 0 72 0 768 0 0 86 768 201 84 12 0 768 0 0 0 +-.00065027999
8779297 -.000648119986057282 .00244523000717163 .00244523000717163 -.00052727997
303009 -.00052512001991272 0 0 8 0 0 200 85 10 0 87 0 0 0 +769 19 86 5 0 72 0 0
 83 V0 16 87 6 0 ?770 0 0 85 0 0 72 17 770 0 771 770 770 0 772 87 0 0 +15 771 7
 0 770 768 0 17 772 0 0 0 0 0 770 87 0 0 -14 768 2 773 ?0 0 771 83 84 +0 0 0 0 8
3 81 1 773 73 268 768 774 0 0 0 775 81 1 774 67 287 768 0 773 0 0 776 82 1 775 9
99999 83 3 776 .792156862745098 .819607843137255 .933333333333333 185 769 5 T0 7
77 85 5 777 -.000650279998779297 .00244523000717163 -.000526199996471405 -.00064
9200022220612 .00244523000717163 -.00052727997303009 -.000648119986057282 .00244
523000717163 -.000526199996471405 -.000649200022220612 .00244523000717163 -.0005
2512001991272 -.000650279998779297 .00244523000717163 -.000526199996471405 74 20
 767 3 0 0 774 773 80 0 0 0 0 0 0 0 0 0 0 0 0 0 0 0 0 0 81 1 70 81 173 62 0 0 0
 0 0 70 71 0 4 T62 0 0 3 20 1 778 778 13 73 3 0 62 0 779 0 0 76 779 201 74 17 0
 779 0 0 0 +-.000650099992752075 -.000648299992084503 .00244523000717163 .002446
759939193725 -.000540149986743927 -.000513870000839234 0 0 7 0 0 200 75 15 0 77
 780 0 0 +781 19 76 5 0 62 0 0 73 V0 16 77 10 0 ?782 0 783 75 0 0 62 17 782 0 78
4 782 782 0 785 77 0 0 +16 783 6 0 ?786 77 0 780 0 0 62 17 786 0 787 786 786 0 7
88 783 0 0 +200 780 14 0 783 0 75 0 +789 185 789 4 T0 790 85 4 790 -.00064920002
2220612 .00244523000717163 -.000540149986743927 -.000649739980697632 .0024467599
39193725 -.000540149986743927 -.000648660004138947 .002446759939193725 -.0005401
49986743927 -.000649200022220612 .00244523000717163 -.000540149986743927 15 787
 7 0 786 779 0 17 788 0 0 0 0 0 786 783 0 0 -14 779 2 791 ?0 0 784 73 74 +0 0 0
 0 73 81 1 791 80 268 779 792 0 0 0 793 15 784 11 0 782 779 787 81 1 792 73 287
 779 0 791 0 0 794 82 1 793 999999 83 3 794 .792156862745098 .819607843137255 .9
33333333333333 17 785 0 0 0 0 0 782 77 0 0 -185 781 4 T0 795 85 4 795 -.00064829
9992084503 .002446759939193725 -.000513870000839234 -.000650099992752075 .002446
759939193725 -.000513870000839234 -.000649200022220612 .00244523000717163 -.0005
13870000839234 -.000648299992084503 .002446759939193725 -.000513870000839234 74
 20 778 3 0 0 792 791 70 0 0 0 0 0 0 0 0 0 0 0 0 0 0 0 0 0 81 1 60 54 173 52 0 0
 0 0 0 70 61 0 4 T52 0 0 3 20 1 796 796 13 63 3 0 52 0 797 0 0 66 797 201 64 12
 0 797 0 0 0 +-.000654330015182495 -.000644070029258728 .002415800094604495 .002
43325996398926 -.000531329989433289 -.000521070003509521 0 0 6 0 0 200 65 10 0 6
7 0 0 0 +798 19 66 5 0 52 0 0 63 V0 16 67 6 0 ?799 0 0 65 0 0 52 17 799 0 800 79
9 799 0 801 67 0 0 +15 800 7 0 799 797 0 17 801 0 0 0 0 0 799 67 0 0 -14 797 2 8
02 ?0 0 800 63 64 +0 0 0 0 63 81 1 802 53 268 797 803 0 0 0 804 81 1 803 47 287
 797 0 802 0 0 805 82 1 804 102826103 83 3 805 .792156862745098 .819607843137255
 .933333333333333 185 798 5 T0 806 85 5 806 -.000654330015182495 .00241580009460
4495 -.000526199996471405 -.000649200022220612 .002415800094604495 -.00053132998
9433289 -.000644070029258728 .002415800094604495 -.000526199996471405 -.00064920
0022220612 .002415800094604495 -.000521070003509521 -.000654330015182495 .002415
800094604495 -.000526199996471405 74 20 796 3 0 0 803 802 60 0 0 0 0 0 0 0 0 0 0
 0 0 0 0 0 0 0 81 1 50 54 173 42 0 0 0 0 0 70 51 0 4 T42 0 0 3 20 1 807 807 13 5
3 3 0 42 0 808 0 0 56 808 201 54 12 0 808 0 0 0 +-.000652800023555756 -.00064560
0020885468 .00241769003868103 .00242525005340576 -.000525569975376129 -.00052070
9991455078 0 0 5 0 0 200 55 10 0 57 0 0 0 +809 19 56 5 0 42 0 0 53 V0 16 57 6 0
 ?810 0 0 55 0 0 42 17 810 0 811 810 810 0 812 57 0 0 +15 811 7 0 810 808 0 17 8
12 0 0 0 0 0 810 57 0 0 -14 808 2 813 ?0 0 811 53 54 +0 0 0 0 53 81 1 813 53 268
 808 814 0 0 0 815 81 1 814 47 287 808 0 813 0 0 816 82 1 815 999999 83 3 816 .7
92156862745098 .819607843137255 .933333333333333 185 809 5 T0 817 85 5 817 -.000
652800023555756 .00241769003868103 -.000525569975376129 -.000652800023555756 .00
242525005340576 -.000525569975376129 -.000645600020885468 .00242525005340576 -.0
00525569975376129 -.000645600020885468 .00241769003868103 -.000525569975376129 -
.000652800023555756 .00241769003868103 -.000525569975376129 74 20 807 3 0 0 814
 813 50 0 0 0 0 0 0 0 0 0 0 0 0 0 0 0 0 0 81 1 40 61 173 32 0 0 0 0 0 70 41 0 4
 T32 0 0 3 20 1 818 818 13 43 3 0 32 0 819 0 0 46 819 201 44 17 0 819 0 0 0 +-.0
00650910019874573 -.00064749002456665 .002430830001831055 .00244523000717163 -.0
00527909994125366 -.000524489998817444 0 0 4 0 0 200 45 15 0 47 820 0 0 +821 19
 46 5 0 32 0 0 43 V0 16 47 10 0 ?822 0 823 45 0 0 32 17 822 0 824 822 822 0 825
 47 0 0 +16 823 6 0 ?826 47 0 820 0 0 32 17 826 0 827 826 826 0 828 823 0 0 +200
 820 14 0 823 0 45 0 +829 185 829 5 T0 830 85 5 830 -.000650910019874573 .002430
830001831055 -.000526199996471405 -.000649200022220612 .002430830001831055 -.000
527909994125366 -.00064749002456665 .002430830001831055 -.000526199996471405 -.0
00649200022220612 .002430830001831055 -.000524489998817444 -.000650910019874573
 .002430830001831055 -.000526199996471405 15 827 7 0 826 819 0 17 828 0 0 0 0 0
 826 823 0 0 -14 819 2 831 ?0 0 824 43 44 +0 0 0 0 43 81 1 831 60 268 819 832 0
 0 0 833 15 824 11 0 822 819 827 81 1 832 53 287 819 0 831 0 0 834 82 1 833 9999
99 83 3 834 .792156862745098 .819607843137255 .933333333333333 17 825 0 0 0 0 0
 822 47 0 0 -185 821 5 T0 835 85 5 835 -.000649200022220612 .00244523000717163 -
.00052727997303009 -.000650279998779297 .00244523000717163 -.000526199996471405
 -.000649200022220612 .00244523000717163 -.00052512001991272 -.00064811998605728
2 .00244523000717163 -.000526199996471405 -.000649200022220612 .0024452300071716
3 -.00052727997303009 74 20 818 3 0 0 832 831 40 0 0 0 0 0 0 0 0 0 0 0 0 0 0 0 0
 0 81 1 30 54 173 22 0 0 0 0 0 70 31 0 4 T22 0 0 3 20 1 836 836 13 33 3 0 22 0 8
37 0 0 36 837 201 34 12 0 837 0 0 0 +-.000650279998779297 -.000648119986057282 .
00244523000717163 .002447659969329835 -.00052727997303009 -.00052512001991272 0
 0 3 0 0 200 35 10 0 37 0 0 0 +838 19 36 5 0 22 0 0 33 V0 16 37 6 0 ?839 0 0 35
 0 0 22 17 839 0 840 839 839 0 841 37 0 0 +15 840 7 0 839 837 0 17 841 0 0 0 0 0
 839 37 0 0 -14 837 2 842 ?0 0 840 33 34 +0 0 0 0 33 81 1 842 53 268 837 843 0 0
 0 844 81 1 843 47 287 837 0 842 0 0 845 82 1 844 999999 83 3 845 .7921568627450
98 .819607843137255 .933333333333333 185 838 5 T0 846 85 5 846 -.000650279998779
297 .00244523000717163 -.000526199996471405 -.000649200022220612 .00244523000717
163 -.00052727997303009 -.000648119986057282 .00244523000717163 -.00052619999647
1405 -.000649200022220612 .00244523000717163 -.00052512001991272 -.0006502799987
79297 .00244523000717163 -.000526199996471405 74 20 836 3 0 0 843 842 30 0 0 0 0
 0 0 0 0 0 0 0 0 0 0 0 0 0 81 1 20 54 173 12 0 0 0 0 0 70 21 0 4 T12 0 0 3 20 1
 847 847 13 23 3 0 12 0 848 0 0 26 848 201 24 12 0 848 0 0 0 +-.0006502799987792
97 -.000648119986057282 .00244523000717163 .00244523000717163 -.0005272799730300
9 -.00052512001991272 0 0 2 0 0 200 25 10 0 27 0 0 0 +849 19 26 5 0 12 0 0 23 V0
 16 27 6 0 ?850 0 0 25 0 0 12 17 850 0 851 850 850 0 852 27 0 0 +15 851 7 0 850
 848 0 17 852 0 0 0 0 0 850 27 0 0 -14 848 2 853 ?0 0 851 23 24 +0 0 0 0 23 81 1
 853 53 268 848 854 0 0 0 855 81 1 854 47 287 848 0 853 0 0 856 82 1 855 999999
 83 3 856 .792156862745098 .819607843137255 .933333333333333 185 849 5 T0 857 85
 5 857 -.000650279998779297 .00244523000717163 -.000526199996471405 -.0006492000
22220612 .00244523000717163 -.00052727997303009 -.000648119986057282 .0024452300
0717163 -.000526199996471405 -.000649200022220612 .00244523000717163 -.000525120
01991272 -.000650279998779297 .00244523000717163 -.000526199996471405 74 20 847
 3 0 0 854 853 20 0 0 0 0 0 0 0 0 0 0 0 0 0 0 0 0 0 81 1 10 61 173 7 0 0 0 0 0 7
0 11 0 4 T7 0 0 3 20 1 858 858 13 13 3 0 7 0 859 0 0 16 859 201 14 17 0 859 0 0
 0 +-.000650099992752075 -.000648299992084503 .00244523000717163 .00244675993919
3725 -.000540149986743927 -.000513870000839234 0 0 1 0 0 200 15 15 0 17 860 0 0
 +861 19 16 5 0 7 0 0 13 V0 16 17 10 0 ?862 0 863 15 0 0 7 17 862 0 864 862 862
 0 865 17 0 0 +16 863 6 0 ?866 17 0 860 0 0 7 17 866 0 867 866 866 0 868 863 0 0
 +200 860 14 0 863 0 15 0 +869 185 869 4 T0 870 85 4 870 -.000649200022220612 .0
0244523000717163 -.000540149986743927 -.000649739980697632 .002446759939193725 -
.000540149986743927 -.000648660004138947 .002446759939193725 -.00054014998674392
7 -.000649200022220612 .00244523000717163 -.000540149986743927 15 867 7 0 866 85
9 0 17 868 0 0 0 0 0 866 863 0 0 -14 859 2 871 ?0 0 864 13 14 +0 0 0 0 13 81 1 8
71 60 268 859 872 0 0 0 873 15 864 11 0 862 859 867 81 1 872 53 287 859 0 871 0
 0 874 82 1 873 999999 83 3 874 .792156862745098 .819607843137255 .9333333333333
33 17 865 0 0 0 0 0 862 17 0 0 -185 861 4 T0 875 85 4 875 -.000648299992084503 .
002446759939193725 -.000513870000839234 -.000650099992752075 .002446759939193725
 -.000513870000839234 -.000649200022220612 .00244523000717163 -.0005138700008392
34 -.000648299992084503 .002446759939193725 -.000513870000839234 74 20 858 3 0 0
 872 871 10 0 0 0 0 0 0 0 0 0 0 0 0 0 0 0 0 0 74 20 6 1 0 0 2 0 0 0 0 0 0 0 0 0
 0 0 0 0 0 0 0 0 0 0 80 2 5 876 877 9000 0 0 0 0 3 5 0 0 0 TFFFFFFFFFFFFF9 1 79
 18 877 MULTI_BODY_ID_20011 0 
